<svg xmlns="http://www.w3.org/2000/svg" width="17.501" height="17.393" viewBox="0 0 17.501 17.393"><defs><style>.a{fill:#aaae9c;}</style></defs><path class="a" d="M17.127,13.441l-4-3.977a2.55,2.55,0,0,0-2.919-.472L6.562,5.37V3.261L2.187,0,0,2.174,3.281,6.522H5.4l3.644,3.621a2.516,2.516,0,0,0,.475,2.9l4,3.977a1.276,1.276,0,0,0,1.8,0l1.8-1.79A1.263,1.263,0,0,0,17.127,13.441Zm-5.79-5.8A3.608,3.608,0,0,1,13.9,8.7l.663.659a4.837,4.837,0,0,0,2.792-5.645.41.41,0,0,0-.687-.187L14.123,6.049,11.8,5.666l-.386-2.306L13.959.832a.409.409,0,0,0-.195-.686A4.945,4.945,0,0,0,9.095,1.433,4.8,4.8,0,0,0,7.687,4.952l2.806,2.789A3.746,3.746,0,0,1,11.337,7.642ZM7.786,10.428,5.848,8.5.639,13.682a2.164,2.164,0,0,0,0,3.074,2.2,2.2,0,0,0,3.093,0l4.225-4.2A3.626,3.626,0,0,1,7.786,10.428Zm-5.6,5.6a.815.815,0,1,1,.82-.815A.82.82,0,0,1,2.187,16.032Z" transform="translate(0.002)"/></svg>