<svg xmlns="http://www.w3.org/2000/svg" width="16.827" height="18.425" viewBox="0 0 16.827 18.425"><defs><style>.a{fill:none;stroke:#969b85;stroke-linecap:round;stroke-linejoin:round;stroke-width:1.667px;}</style></defs><g transform="translate(0.914 0.86)"><path class="a" d="M13.75,7.833,6.25,3.508" transform="translate(-2.5 -1.668)"/><path class="a" d="M17.5,13.333V6.667a1.667,1.667,0,0,0-.833-1.442L10.833,1.892a1.667,1.667,0,0,0-1.667,0L3.333,5.225A1.667,1.667,0,0,0,2.5,6.667v6.667a1.667,1.667,0,0,0,.833,1.442l5.833,3.333a1.667,1.667,0,0,0,1.667,0l5.833-3.333a1.667,1.667,0,0,0,.833-1.442Z" transform="translate(-2.5 -1.668)"/><path class="a" d="M2.725,5.8,10,10.008,17.275,5.8" transform="translate(-2.5 -1.668)"/><path class="a" d="M10,18.4V10" transform="translate(-2.5 -1.668)"/></g></svg>