<svg xmlns="http://www.w3.org/2000/svg" width="18.483" height="14.873" viewBox="0 0 18.483 14.873"><defs><style>.a{fill:#a9ad9c;}</style></defs><path class="a" d="M17.633,11.521a4.469,4.469,0,0,0,0-1.415l.745-.495a.257.257,0,0,0,.1-.282,5.2,5.2,0,0,0-.959-1.906.191.191,0,0,0-.26-.046l-.745.495a3.316,3.316,0,0,0-1.066-.707v-.99a.237.237,0,0,0-.165-.236,3.805,3.805,0,0,0-1.912,0,.237.237,0,0,0-.165.236v.99a3.316,3.316,0,0,0-1.066.707l-.745-.495a.192.192,0,0,0-.26.046,5.2,5.2,0,0,0-.959,1.906.262.262,0,0,0,.1.282l.745.495a4.469,4.469,0,0,0,0,1.415l-.745.495a.257.257,0,0,0-.1.282,5.228,5.228,0,0,0,.959,1.906.191.191,0,0,0,.26.046l.745-.495a3.316,3.316,0,0,0,1.066.707v.99a.237.237,0,0,0,.165.236,3.805,3.805,0,0,0,1.912,0,.237.237,0,0,0,.165-.236v-.99a3.316,3.316,0,0,0,1.066-.707l.745.495a.192.192,0,0,0,.26-.046,5.2,5.2,0,0,0,.959-1.906.262.262,0,0,0-.1-.282Zm-3.307.9a1.518,1.518,0,0,1-1.4-1.61,1.52,1.52,0,0,1,1.4-1.611,1.52,1.52,0,0,1,1.4,1.611A1.518,1.518,0,0,1,14.326,12.424ZM2.773,7.626A2,2,0,0,0,4.621,5.5,2,2,0,0,0,2.773,3.376,2,2,0,0,0,.924,5.5,2,2,0,0,0,2.773,7.626Zm6.47,1.063c.055,0,.107-.017.162-.02A6.339,6.339,0,0,1,10.453,6.7a1.076,1.076,0,0,1,.835-.418,1,1,0,0,1,.566.176l.228.153c.023-.017.046-.03.069-.046a4.134,4.134,0,0,0,.323-1.594A3.5,3.5,0,0,0,9.24,1.254,3.5,3.5,0,0,0,6.008,4.97,3.5,3.5,0,0,0,9.243,8.689Zm3.038,6.459c-.066-.04-.133-.086-.2-.13a1.318,1.318,0,0,1-.794.325,1.085,1.085,0,0,1-.835-.418,6.323,6.323,0,0,1-1.161-2.311,1.446,1.446,0,0,1,.745-1.67q0-.13,0-.259l-.228-.153a1.231,1.231,0,0,1-.283-.269c-.1.007-.188.02-.283.02a4.08,4.08,0,0,1-1.978-.531h-.24A3.6,3.6,0,0,0,3.7,13.577v.956a1.5,1.5,0,0,0,1.386,1.594H12.46a1.418,1.418,0,0,1-.179-.674ZM5,9.306a1.731,1.731,0,0,0-1.3-.618H1.849A2,2,0,0,0,0,10.814v1.063a1,1,0,0,0,.924,1.063h1.9A4.92,4.92,0,0,1,5,9.306Z" transform="translate(0 -1.254)"/></svg>