<svg xmlns="http://www.w3.org/2000/svg" width="16.8" height="12.25" viewBox="0 0 16.8 12.25"><defs><style>.a{fill:#a9ad9c;}</style></defs><path class="a" d="M2.52,6.5A1.718,1.718,0,0,0,4.2,4.75,1.718,1.718,0,0,0,2.52,3,1.718,1.718,0,0,0,.84,4.75,1.718,1.718,0,0,0,2.52,6.5Zm11.76,0a1.718,1.718,0,0,0,1.68-1.75,1.681,1.681,0,1,0-3.36,0A1.718,1.718,0,0,0,14.28,6.5Zm.84.875H13.44a1.642,1.642,0,0,0-1.184.509,4,4,0,0,1,1.971,2.991H15.96A.857.857,0,0,0,16.8,10V9.125A1.718,1.718,0,0,0,15.12,7.375Zm-6.72,0a3,3,0,0,0,2.94-3.062A3,3,0,0,0,8.4,1.25,3,3,0,0,0,5.46,4.313,3,3,0,0,0,8.4,7.375Zm2.016.875H10.2a3.914,3.914,0,0,1-3.6,0H6.384A3.09,3.09,0,0,0,3.36,11.4v.788A1.287,1.287,0,0,0,4.62,13.5h7.56a1.287,1.287,0,0,0,1.26-1.312V11.4A3.09,3.09,0,0,0,10.416,8.25ZM4.544,7.884A1.642,1.642,0,0,0,3.36,7.375H1.68A1.718,1.718,0,0,0,0,9.125V10a.857.857,0,0,0,.84.875H2.57A4.013,4.013,0,0,1,4.544,7.884Z" transform="translate(0 -1.25)"/></svg>