<svg xmlns="http://www.w3.org/2000/svg" width="18.75" height="15" viewBox="0 0 18.75 15"><defs><style>.a{fill:#a9ad9c;}</style></defs><path class="a" d="M17.135,8.294,16.7,7.2,15.918,5.25A4.354,4.354,0,0,0,11.855,2.5H6.895A4.354,4.354,0,0,0,2.832,5.25L2.054,7.2l-.439,1.1A2.5,2.5,0,0,0,0,10.625V12.5a2.48,2.48,0,0,0,.625,1.638V16.25a1.25,1.25,0,0,0,1.25,1.25h1.25a1.25,1.25,0,0,0,1.25-1.25V15h10v1.25a1.25,1.25,0,0,0,1.25,1.25h1.25a1.25,1.25,0,0,0,1.25-1.25V14.138A2.478,2.478,0,0,0,18.75,12.5V10.625A2.5,2.5,0,0,0,17.135,8.294ZM5.154,6.179A1.875,1.875,0,0,1,6.895,5h4.961A1.875,1.875,0,0,1,13.6,6.179l.779,1.946h-10l.779-1.946ZM3.125,12.492a1.179,1.179,0,0,1-1.25-1.246A1.179,1.179,0,0,1,3.125,10,2.4,2.4,0,0,1,5,11.869C5,12.617,3.875,12.492,3.125,12.492Zm12.5,0c-.75,0-1.875.125-1.875-.623A2.4,2.4,0,0,1,15.625,10a1.179,1.179,0,0,1,1.25,1.246A1.179,1.179,0,0,1,15.625,12.492Z" transform="translate(0 -2.5)"/></svg>