<svg xmlns="http://www.w3.org/2000/svg" xmlns:xlink="http://www.w3.org/1999/xlink" width="20" height="17" viewBox="0 0 20 17"><defs><style>.a,.c{fill:rgba(150,155,133,0.81);}.a{stroke:#707070;}.b{clip-path:url(#a);}</style><clipPath id="a"><rect class="a" width="20" height="17" transform="translate(39 250)"/></clipPath></defs><g class="b" transform="translate(-39 -250)"><g transform="translate(42.174 250)"><g transform="translate(9.309)"><path class="c" d="M13.75,0V4.34H18.4Z" transform="translate(-13.75)"/></g><path class="c" d="M12.059,5.425A1.128,1.128,0,0,1,10.9,4.34V0H3.914A1.128,1.128,0,0,0,2.75,1.085v15.19A1.128,1.128,0,0,0,3.914,17.36H15.55a1.127,1.127,0,0,0,1.164-1.085V5.425Zm-5.237-2.1v-.61a.583.583,0,0,1,1.164,0v.611a2.471,2.471,0,0,1,.984.433.516.516,0,0,1,.084.763.61.61,0,0,1-.818.078A1.384,1.384,0,0,0,7.4,4.34c-.631,0-1.164.372-1.164.814s.533.814,1.164.814a2.148,2.148,0,0,1,2.327,1.9A2.016,2.016,0,0,1,7.987,9.7v.61a.583.583,0,0,1-1.164,0V9.7a2.471,2.471,0,0,1-.984-.433A.517.517,0,0,1,5.755,8.5a.609.609,0,0,1,.818-.078A1.378,1.378,0,0,0,7.4,8.68c.631,0,1.164-.372,1.164-.814S8.035,7.052,7.4,7.052a2.148,2.148,0,0,1-2.327-1.9A2.016,2.016,0,0,1,6.823,3.322ZM13.8,15.19H5.659a.544.544,0,1,1,0-1.085H13.8a.544.544,0,1,1,0,1.085Zm0-2.17H5.659a.544.544,0,1,1,0-1.085H13.8a.544.544,0,1,1,0,1.085Zm0-2.17H11.478a.544.544,0,1,1,0-1.085H13.8a.544.544,0,1,1,0,1.085Zm0-2.17H11.478a.544.544,0,1,1,0-1.085H13.8a.544.544,0,1,1,0,1.085Z" transform="translate(-2.75)"/></g></g></svg>