<svg xmlns="http://www.w3.org/2000/svg" xmlns:xlink="http://www.w3.org/1999/xlink" width="17" height="17" viewBox="0 0 17 17"><defs><style>.a,.c{fill:rgba(150,155,133,0.81);}.a{stroke:#707070;}.b{clip-path:url(#a);}</style><clipPath id="a"><rect class="a" width="17" height="17" transform="translate(37 463.51)"/></clipPath></defs><g class="b" transform="translate(-37 -463.51)"><g transform="translate(38.062 463.892)"><g transform="translate(3.035)"><path class="c" d="M11.254,0a4.375,4.375,0,0,0-4.6,4.094,4.375,4.375,0,0,0,4.6,4.094,4.375,4.375,0,0,0,4.6-4.094A4.375,4.375,0,0,0,11.254,0Z" transform="translate(-6.652)"/></g><g transform="translate(5.54 9.17)"><path class="c" d="M12.263,14.219H12.12a8.117,8.117,0,0,0-2.014.253l2.1,2.887,2.1-2.883A8.2,8.2,0,0,0,12.263,14.219Z" transform="translate(-10.106 -14.219)"/></g><g transform="translate(8.19 9.779)"><path class="c" d="M20.488,20.055a6.6,6.6,0,0,0-4.123-4.892l-2.6,3.582v3.407h7.085Z" transform="translate(-13.762 -15.163)"/></g><g transform="translate(0 9.776)"><path class="c" d="M6.946,15.158a6.61,6.61,0,0,0-4.122,4.895l-.358,2.1H9.55V18.741Z" transform="translate(-2.465 -15.158)"/></g></g></g></svg>