<svg xmlns="http://www.w3.org/2000/svg" xmlns:xlink="http://www.w3.org/1999/xlink" width="17" height="18" viewBox="0 0 17 18"><defs><style>.a,.c{fill:#969b85;}.a{stroke:#707070;}.b{clip-path:url(#a);}</style><clipPath id="a"><rect class="a" width="17" height="18" transform="translate(238 398)"/></clipPath></defs><g class="b" transform="translate(-238 -398)"><g transform="translate(237.5 398)"><path class="c" d="M16.42,7.473,9.4.452A1.055,1.055,0,1,0,7.908,1.944l7.021,7.021A1.055,1.055,0,0,0,16.42,7.473Z"/><path class="c" d="M7.387,2.915l-.053.265a11.336,11.336,0,0,1-2.5,5.064l3.82,3.82a11.3,11.3,0,0,1,5.04-2.525l.265-.053Z"/><path class="c" d="M4.134,9.035l-2.61,2.61a1.582,1.582,0,0,0,0,2.238l1.491,1.491a1.582,1.582,0,0,0,2.238,0l2.61-2.61Zm.373,4.1a.527.527,0,0,1-.746-.746l.746-.746a.527.527,0,0,1,.746.746Z"/><path class="c" d="M10.064,15.654l.717-.717a1.581,1.581,0,0,0,0-2.237l-.533-.533a9.988,9.988,0,0,0-.849.642l.636.637a.526.526,0,0,1,0,.745l-.729.729L8.235,13.882,6.743,15.374l2.393,2.318A1.055,1.055,0,0,0,10.627,16.2Z"/><path class="c" d="M12.194,0a.527.527,0,0,0-.527.527V1.582a.527.527,0,1,0,1.055,0V.527A.527.527,0,0,0,12.194,0Z"/><path class="c" d="M16.413,4.219H15.359a.527.527,0,0,0,0,1.055h1.055a.527.527,0,0,0,0-1.055Z"/><path class="c" d="M15.731,1.209a.527.527,0,0,0-.746,0L13.931,2.264a.527.527,0,0,0,.746.746l1.055-1.055A.527.527,0,0,0,15.731,1.209Z"/></g></g></svg>