<svg xmlns="http://www.w3.org/2000/svg" xmlns:xlink="http://www.w3.org/1999/xlink" width="17" height="18" viewBox="0 0 17 18"><defs><style>.a,.c{fill:rgba(150,155,133,0.81);}.a{stroke:#707070;}.b{clip-path:url(#a);}</style><clipPath id="a"><rect class="a" width="17" height="18" transform="translate(39 335)"/></clipPath></defs><g class="b" transform="translate(-39 -335)"><g transform="translate(39 336.125)"><path class="c" d="M16.146,3.938h-2.99V.563a.581.581,0,0,0-.6-.563H.6A.581.581,0,0,0,0,.563V13.5a2.324,2.324,0,0,0,2.392,2.25h11.96a2.324,2.324,0,0,0,2.392-2.25v-9A.581.581,0,0,0,16.146,3.938ZM4.784,2.812H8.372a.581.581,0,0,1,.6.563.581.581,0,0,1-.6.563H4.784a.581.581,0,0,1-.6-.563A.581.581,0,0,1,4.784,2.812ZM10.166,13.5H2.99a.564.564,0,1,1,0-1.125h7.176a.564.564,0,1,1,0,1.125Zm0-2.25H2.99a.564.564,0,1,1,0-1.125h7.176a.564.564,0,1,1,0,1.125Zm0-2.25H2.99a.564.564,0,1,1,0-1.125h7.176a.564.564,0,1,1,0,1.125Zm0-2.25H2.99a.564.564,0,1,1,0-1.125h7.176a.564.564,0,1,1,0,1.125Zm5.382,6.75a1.2,1.2,0,0,1-2.392,0V5.062h2.392V13.5Z"/></g></g></svg>