<svg xmlns="http://www.w3.org/2000/svg" xmlns:xlink="http://www.w3.org/1999/xlink" width="219" height="227" viewBox="0 0 219 227"><defs><style>.a,.h,.u{fill:#fff;}.a{stroke:#707070;}.b{clip-path:url(#a);}.c{fill:url(#b);}.d{opacity:0.3;}.e{fill:#91b3fa;}.f{fill:#bdd0fb;}.g{fill:#7d97f4;}.i{fill:url(#c);}.j{fill:url(#d);}.k{fill:url(#e);}.l{fill:url(#f);}.m{fill:url(#g);}.n{fill:url(#h);}.o{fill:url(#i);}.p{fill:url(#j);}.q,.s{opacity:0.42;}.q{fill:url(#k);}.r{fill:url(#l);}.s{fill:url(#m);}.t{fill:url(#n);}.u{opacity:0.56;}.v{fill:url(#o);}.w{fill:url(#p);}.x,.z{opacity:0.6;}.x{fill:url(#q);}.y{fill:url(#r);}.z{fill:url(#t);}.aa{fill:url(#u);}.ab{fill:url(#v);}.ac{fill:url(#w);}.ad{fill:url(#x);}.ae{fill:url(#y);}.af{fill:url(#z);}.ag{fill:url(#aa);}.ah{fill:url(#ab);}.ai{fill:url(#ac);}.aj{fill:url(#ad);}.ak{fill:url(#ae);}.al{fill:url(#af);}.am{fill:url(#ag);}.an{fill:url(#ah);}.ao{fill:url(#ai);}.ap{fill:url(#aj);}.aq{fill:url(#ak);}.ar{fill:url(#al);}.as{fill:url(#am);}.at{opacity:0.25;fill:url(#an);}.au{fill:url(#ao);}.av{fill:url(#ap);}.aw{fill:url(#aq);}.ax{fill:url(#ar);}.ay{fill:url(#as);}.az{fill:url(#at);}.ba{fill:url(#au);}.bb{fill:url(#av);}</style><clipPath id="a"><rect class="a" width="219" height="227" transform="translate(264.368 336)"/></clipPath><linearGradient id="b" x1="1.13" y1="1.295" x2="0.236" y2="0.19" gradientUnits="objectBoundingBox"><stop offset="0" stop-color="#dae3fe"/><stop offset="1" stop-color="#e9effd"/></linearGradient><linearGradient id="c" y1="0.5" x2="1" y2="0.5" gradientUnits="objectBoundingBox"><stop offset="0" stop-color="#4f52ff"/><stop offset="1" stop-color="#4042e2"/></linearGradient><linearGradient id="d" x1="0" y1="0.5" x2="1" y2="0.5" xlink:href="#c"/><linearGradient id="e" x1="7.209" y1="-29.742" x2="8.004" y2="-26.824" gradientUnits="objectBoundingBox"><stop offset="0" stop-color="#09005d"/><stop offset="1" stop-color="#1a0f91"/></linearGradient><linearGradient id="f" x1="5.15" y1="-17.007" x2="5.586" y2="-15.315" xlink:href="#e"/><linearGradient id="g" x1="-1.059" y1="-2.254" x2="-1.12" y2="-0.414" gradientUnits="objectBoundingBox"><stop offset="0" stop-color="#ff928e"/><stop offset="1" stop-color="#fe7062"/></linearGradient><linearGradient id="h" x1="0.996" y1="-7.868" x2="0.42" y2="1.773" gradientUnits="objectBoundingBox"><stop offset="0" stop-color="#e1473d"/><stop offset="1" stop-color="#e9605a"/></linearGradient><linearGradient id="i" x1="0.732" y1="-4.235" x2="0.395" y2="2.411" xlink:href="#h"/><linearGradient id="j" x1="-5.755" y1="-3.453" x2="-6.493" y2="0.355" xlink:href="#e"/><linearGradient id="k" x1="-4.437" y1="-14.737" x2="-5.295" y2="-9.365" xlink:href="#c"/><linearGradient id="l" x1="-4.957" y1="-2.72" x2="-5.578" y2="1.382" xlink:href="#e"/><linearGradient id="m" x1="-6.522" y1="-57.75" x2="-7.704" y2="-35.747" xlink:href="#c"/><linearGradient id="n" x1="0.875" y1="-4.412" x2="0.213" y2="4.623" xlink:href="#h"/><linearGradient id="o" x1="0.755" y1="-3.608" x2="0.46" y2="1.588" xlink:href="#h"/><linearGradient id="p" x1="0" y1="0.5" x2="1" y2="0.5" xlink:href="#e"/><linearGradient id="q" x1="1.917" y1="-4.284" x2="-0.258" y2="3.06" xlink:href="#c"/><linearGradient id="r" x1="0.732" y1="-3.22" x2="0.437" y2="1.992" xlink:href="#h"/><linearGradient id="t" x1="1.667" y1="-3.441" x2="-0.508" y2="3.903" xlink:href="#c"/><linearGradient id="u" x1="0.748" y1="-3.988" x2="0.246" y2="5.319" xlink:href="#g"/><linearGradient id="v" x1="0.917" y1="-10.197" x2="0.205" y2="7.636" xlink:href="#h"/><linearGradient id="w" x1="2.712" y1="-8.94" x2="-0.243" y2="3.755" xlink:href="#h"/><linearGradient id="x" x1="-10.455" y1="-4.024" x2="-9.278" y2="0.139" gradientUnits="objectBoundingBox"><stop offset="0" stop-color="#febbba"/><stop offset="1" stop-color="#ff928e"/></linearGradient><linearGradient id="y" x1="6.209" y1="-2.325" x2="3.928" y2="-1.205" xlink:href="#g"/><linearGradient id="z" x1="28.844" y1="0.5" x2="29.863" y2="0.5" xlink:href="#c"/><linearGradient id="aa" x1="28.328" y1="0.5" x2="29.328" y2="0.5" xlink:href="#e"/><linearGradient id="ab" x1="52.011" y1="0.5" x2="53.011" y2="0.5" xlink:href="#c"/><linearGradient id="ac" x1="53.567" y1="0.499" x2="54.567" y2="0.499" xlink:href="#e"/><linearGradient id="ad" x1="8.255" y1="-6.152" x2="7.253" y2="-5.643" xlink:href="#g"/><linearGradient id="ae" x1="55.335" y1="1.33" x2="55.571" y2="0.355" xlink:href="#x"/><linearGradient id="af" x1="41.253" y1="0.35" x2="40.141" y2="1.106" xlink:href="#x"/><linearGradient id="ag" x1="35.64" y1="0.162" x2="36.53" y2="1.144" xlink:href="#e"/><linearGradient id="ah" x1="165.219" y1="-0.685" x2="160.668" y2="1.784" xlink:href="#x"/><linearGradient id="ai" x1="-27.084" y1="-10.735" x2="-27.942" y2="-12.558" xlink:href="#x"/><linearGradient id="aj" x1="10.656" y1="-11.374" x2="9.242" y2="-10.427" xlink:href="#g"/><linearGradient id="ak" x1="-19.718" y1="-6.617" x2="-17.547" y2="-0.137" xlink:href="#x"/><linearGradient id="al" x1="1.083" y1="-0.993" x2="2.086" y2="-3.778" xlink:href="#c"/><linearGradient id="am" x1="0.259" y1="0.948" x2="1.038" y2="-0.466" xlink:href="#e"/><linearGradient id="an" x1="156.702" y1="-3.531" x2="150.956" y2="3.76" gradientUnits="objectBoundingBox"><stop offset="0" stop-color="#5ab6ff"/><stop offset="1" stop-color="#2f68e3"/></linearGradient><linearGradient id="ao" x1="0.85" y1="-0.817" x2="0.245" y2="1.399" xlink:href="#e"/><linearGradient id="ap" x1="1.466" y1="-1.282" x2="-1.324" y2="3.966" xlink:href="#e"/><linearGradient id="aq" x1="1.451" y1="-0.873" x2="-2.108" y2="3.868" xlink:href="#e"/><linearGradient id="ar" x1="0.885" y1="-0.404" x2="0.705" y2="0.021" xlink:href="#c"/><linearGradient id="as" x1="1.081" y1="-1.18" x2="0.886" y2="-0.596" xlink:href="#c"/><linearGradient id="at" x1="3.333" y1="-6.09" x2="3.817" y2="-4.496" xlink:href="#c"/><linearGradient id="au" x1="1.105" y1="-3.577" x2="1.337" y2="-2.429" xlink:href="#c"/><linearGradient id="av" x1="-22.482" y1="-0.364" x2="-19.952" y2="2.061" xlink:href="#x"/></defs><g class="b" transform="translate(-264.368 -336)"><g transform="translate(290.877 365.126)"><g transform="translate(0)"><path class="c" d="M169.554,168.9a59.566,59.566,0,0,1-9.075,7.8c-29.6,21.687-64.63,15.366-72.075,13.821-10.993-2.28-32.239-6.686-47.6-25.133-23.243-27.908-19.624-71.877-1.594-100.9,3.3-5.309,20.717-34.776,56.121-39.5,21.426-2.86,46.4,2.908,64.491,18.381C197.784,75.848,195.08,141.461,169.554,168.9Z" transform="translate(-24.227 -24.283)"/><g class="d" transform="translate(47.092 7.655)"><path class="e" d="M71.8,81.714a.83.83,0,0,1-1.053-.392c-.444-.854-.858-1.741-1.231-2.635a.872.872,0,0,1-.007-.655.847.847,0,0,1,.449-.468l.015-.007a.832.832,0,0,1,1.085.459c.354.849.748,1.692,1.169,2.5a.871.871,0,0,1,.061.652.851.851,0,0,1-.409.5.689.689,0,0,1-.08.038Zm-2.684-6.936a.823.823,0,0,1-.686-.027A.852.852,0,0,1,68,74.209c-.25-.937-.463-1.894-.633-2.845a.855.855,0,0,1,.674-1,.84.84,0,0,1,.975.689c.161.9.364,1.813.6,2.7A.86.86,0,0,1,69.121,74.778ZM68,67.411a.825.825,0,0,1-.768-.075.861.861,0,0,1-.383-.684c-.04-.968-.038-1.95,0-2.919a.839.839,0,1,1,1.675.077c-.041.92-.042,1.853,0,2.773a.859.859,0,0,1-.52.828Zm.522-7.439a.825.825,0,0,1-.844-.132.866.866,0,0,1-.293-.819c.174-.953.391-1.91.644-2.844a.836.836,0,0,1,1.032-.6.858.858,0,0,1,.585,1.053c-.24.887-.446,1.8-.611,2.7a.853.853,0,0,1-.507.637Zm2.135-7.133a.826.826,0,0,1-.914-.2.869.869,0,0,1-.169-.938c.376-.887.794-1.772,1.244-2.627a.83.83,0,0,1,1.472-.065.872.872,0,0,1,0,.875c-.427.813-.827,1.653-1.181,2.5a.842.842,0,0,1-.456.454Zm3.625-6.473a.828.828,0,0,1-.976-.267.871.871,0,0,1-.016-1.031c.56-.784,1.16-1.55,1.783-2.281a.827.827,0,0,1,1.183-.084.869.869,0,0,1,.082,1.208c-.59.7-1.162,1.424-1.694,2.17a.836.836,0,0,1-.36.286Zm27.743-13.625a.816.816,0,0,1-.35.06c-.9-.04-1.813-.04-2.716,0a.856.856,0,0,1-.072-1.711c.95-.041,1.913-.041,2.86,0a.845.845,0,0,1,.791.71.859.859,0,0,1-.513.939ZM79.219,40.88a.83.83,0,0,1-1.029-.347.869.869,0,0,1,.166-1.094c.716-.636,1.468-1.247,2.235-1.818a.828.828,0,0,1,1.173.189.869.869,0,0,1-.185,1.2c-.729.543-1.443,1.123-2.126,1.726a.856.856,0,0,1-.231.143Zm15.52-7.615a.853.853,0,0,1-.162.048c-.886.167-1.777.376-2.648.619a.826.826,0,0,1-.826-.206.868.868,0,0,1-.225-.837.847.847,0,0,1,.608-.607c.916-.257,1.854-.476,2.786-.652a.838.838,0,0,1,.959.6.861.861,0,0,1-.491,1.034Zm-9.507,3.39a.832.832,0,0,1-1.076-.431.865.865,0,0,1,.367-1.119c.837-.455,1.7-.88,2.577-1.261l.017-.007a.833.833,0,0,1,1.077.47.863.863,0,0,1-.434,1.111c-.827.362-1.653.766-2.448,1.2a.77.77,0,0,1-.078.037Z" transform="translate(-66.819 -31.059)"/><path class="e" d="M104.152,33.479a.816.816,0,0,1-.5.04c-.421-.1-.851-.189-1.28-.27a.855.855,0,0,1-.671-1,.84.84,0,0,1,.978-.685c.45.086.9.181,1.346.284a.861.861,0,0,1,.126,1.628Z" transform="translate(-63.11 -30.996)"/></g><g class="d" transform="translate(71.052 22.609)"><path class="e" d="M122.822,47.1a.83.83,0,0,1-1.031-.352c-.223-.378-.457-.758-.7-1.128a.867.867,0,0,1,.238-1.186.828.828,0,0,1,1.162.243c.252.39.5.79.734,1.188a.871.871,0,0,1,.077.714A.848.848,0,0,1,122.822,47.1Z" transform="translate(-85.02 -44.297)"/><path class="e" d="M110.019,94.644q-.537.221-1.085.422a.834.834,0,0,1-1.075-.511.861.861,0,0,1,.5-1.1c.843-.314,1.671-.663,2.472-1.039a.831.831,0,0,1,1.113.418.864.864,0,0,1-.41,1.136C111.039,94.206,110.529,94.431,110.019,94.644Zm-5.337,1.68a.8.8,0,0,1-.136.043c-.914.2-1.847.369-2.775.493a.842.842,0,0,1-.94-.738.853.853,0,0,1,.722-.96c.879-.121,1.765-.276,2.633-.468a.837.837,0,0,1,.968.586.862.862,0,0,1-.475,1.041ZM115.4,91.809a.831.831,0,0,1-1.064-.4.866.866,0,0,1,.3-1.117c.746-.488,1.481-1.015,2.185-1.568a.827.827,0,0,1,1.176.159.868.868,0,0,1-.155,1.2c-.742.581-1.517,1.136-2.3,1.65a.835.835,0,0,1-.135.071Zm-17.87,5.275a.816.816,0,0,1-.319.06c-.934-.007-1.88-.055-2.81-.143a.857.857,0,0,1,.154-1.7c.886.083,1.781.128,2.668.135a.843.843,0,0,1,.817.7.86.86,0,0,1-.51.954ZM120.985,87.2a.829.829,0,0,1-1.011-.32.87.87,0,0,1,.1-1.076c.622-.643,1.226-1.322,1.8-2.019a.83.83,0,0,1,.793-.312.843.843,0,0,1,.653.556.87.87,0,0,1-.158.853c-.6.733-1.235,1.447-1.889,2.125a.825.825,0,0,1-.284.187Zm4.457-5.753a.827.827,0,0,1-.957-.243.87.87,0,0,1-.068-1c.472-.769.916-1.568,1.321-2.371a.83.83,0,0,1,1.129-.369.865.865,0,0,1,.362,1.153c-.427.844-.9,1.688-1.391,2.5a.837.837,0,0,1-.4.337Zm3.122-6.608a.826.826,0,0,1-.893-.176.869.869,0,0,1-.211-.9c.3-.855.56-1.733.785-2.609a.837.837,0,0,1,1.024-.611.858.858,0,0,1,.6,1.045c-.236.921-.514,1.845-.827,2.745a.848.848,0,0,1-.476.5Zm1.636-7.146a.824.824,0,0,1-.823-.115.864.864,0,0,1-.322-.781c.106-.9.177-1.815.206-2.72a.838.838,0,1,1,1.675.06c-.032.953-.105,1.917-.216,2.865a.852.852,0,0,1-.52.685Zm.059-7.341a.824.824,0,0,1-.746-.061.859.859,0,0,1-.4-.645c-.091-.9-.221-1.809-.387-2.7a.855.855,0,0,1,.668-1,.84.84,0,0,1,.98.682c.174.938.311,1.893.407,2.841a.858.858,0,0,1-.52.877Zm-1.521-7.176-.048.018a.823.823,0,0,1-.642-.046.851.851,0,0,1-.421-.5c-.207-.632-.436-1.266-.68-1.884q-.133-.336-.272-.666a.863.863,0,0,1,.44-1.124.814.814,0,0,1,.643-.012.838.838,0,0,1,.458.461q.146.348.285.7c.257.649.5,1.317.715,1.982A.861.861,0,0,1,128.737,53.172Z" transform="translate(-87.923 -43.7)"/><path class="e" d="M90.925,91.009a.817.817,0,0,1-.5.04c-.442-.1-.89-.222-1.332-.347a.858.858,0,0,1-.584-1.054.836.836,0,0,1,1.032-.6c.42.121.845.23,1.265.33a.861.861,0,0,1,.123,1.628Z" transform="translate(-88.475 -38.497)"/></g><path class="e" d="M89.824,87.909a.385.385,0,0,0,.452-.054l3.537-3.267a20.377,20.377,0,0,0,6.689.758l2.748,3.975a.387.387,0,0,0,.429.154l5.491-1.628a.4.4,0,0,0,.282-.362l.236-4.861a20.858,20.858,0,0,0,5.255-4.3l4.7.828a.389.389,0,0,0,.41-.2l2.757-5.117a.407.407,0,0,0-.053-.461l-3.2-3.613a21.63,21.63,0,0,0,.743-6.83l3.894-2.806a.4.4,0,0,0,.146-.439l-1.594-5.607a.393.393,0,0,0-.354-.288l-4.76-.241a21.135,21.135,0,0,0-4.208-5.366l.811-4.8a.4.4,0,0,0-.2-.418l-5.013-2.816a.385.385,0,0,0-.452.054l-3.535,3.268a20.359,20.359,0,0,0-6.689-.758L95.6,38.743a.388.388,0,0,0-.429-.153L89.68,40.217a.4.4,0,0,0-.282.362l-.236,4.861a20.838,20.838,0,0,0-5.255,4.3l-4.7-.828a.39.39,0,0,0-.413.2L76.04,54.231a.407.407,0,0,0,.053.461l3.2,3.61a21.646,21.646,0,0,0-.743,6.83l-3.894,2.806a.4.4,0,0,0-.151.438L76.1,73.984a.394.394,0,0,0,.354.288l4.76.241a21.151,21.151,0,0,0,4.208,5.366l-.811,4.8a.4.4,0,0,0,.2.418Z" transform="translate(-18.911 -22.43)"/><path class="f" d="M99.728,67.232a5.709,5.709,0,0,1-7.4-3.052,5.929,5.929,0,0,1,2.716-7.667,5.7,5.7,0,0,1,7.6,2.489,5.941,5.941,0,0,1-2.157,7.85,5.71,5.71,0,0,1-.758.38ZM95.94,57.606a4.424,4.424,0,0,0-.587.294,4.543,4.543,0,0,0-1.647,6,4.354,4.354,0,0,0,5.812,1.9,4.533,4.533,0,0,0,2.079-5.859,4.365,4.365,0,0,0-5.657-2.339Z" transform="translate(-17.067 -20.182)"/><path class="f" d="M103.746,76.047a14.122,14.122,0,0,1-1.373.482h0c-.148.044-.3.085-.445.124a13.968,13.968,0,0,1-2.231.392h-.03l-.087.007-.169.013a.335.335,0,0,1-.335-.213.376.376,0,0,1-.024-.1.34.34,0,0,1,.311-.365,13.278,13.278,0,0,0,2.823-.515,13.611,13.611,0,0,0,9.173-9.361,13.935,13.935,0,0,0,.007-7.677,14.084,14.084,0,0,0-.452-1.338,13.4,13.4,0,0,0-16.238-8.035,13.883,13.883,0,0,0-5.419,23.277.348.348,0,0,1,.017.484.331.331,0,0,1-.474.017,14.418,14.418,0,0,1-3.478-5.163q-.269-.681-.469-1.387A14.5,14.5,0,0,1,94.488,48.8a14.064,14.064,0,0,1,17.043,8.436,14.7,14.7,0,0,1,.475,1.4,14.523,14.523,0,0,1-8.267,17.4Z" transform="translate(-17.868 -21.179)"/><g class="d" transform="translate(28.391 53.471)"><path class="e" d="M54.958,104.333a.511.511,0,0,1-.6-.163c-.273-.352-.539-.717-.791-1.085a.538.538,0,0,1-.06-.539.513.513,0,0,1,.909-.064c.24.351.493.7.753,1.035a.522.522,0,0,1-.213.816Z" transform="translate(-49.538 -67.646)"/><path class="e" d="M53.163,104.894a.512.512,0,0,1-.65-.241q-.531-1.03-.959-2.11c-.059-.151-.118-.3-.174-.456a.551.551,0,0,1,.3-.682.515.515,0,0,1,.668.307q.081.219.167.436.407,1.029.914,2.012a.535.535,0,0,1-.217.714C53.2,104.88,53.179,104.888,53.163,104.894Zm-1.906-5.133a.573.573,0,0,1-.071.024.518.518,0,0,1-.626-.388,23.245,23.245,0,0,1-.491-2.769.526.526,0,0,1,.453-.587.52.52,0,0,1,.575.463,22.289,22.289,0,0,0,.468,2.641.531.531,0,0,1-.308.616Zm-.629-5.452a.508.508,0,0,1-.485-.053.531.531,0,0,1-.226-.441,23.411,23.411,0,0,1,.191-2.81.52.52,0,0,1,.581-.455.527.527,0,0,1,.446.593,22.223,22.223,0,0,0-.182,2.679.528.528,0,0,1-.323.487Zm.7-5.443a.509.509,0,0,1-.536-.093.535.535,0,0,1-.159-.53,23.314,23.314,0,0,1,.857-2.676.514.514,0,0,1,.673-.3.533.533,0,0,1,.29.687,22.073,22.073,0,0,0-.818,2.551.525.525,0,0,1-.306.356Zm1.983-5.1a.511.511,0,0,1-.582-.138.537.537,0,0,1-.067-.606,23.033,23.033,0,0,1,1.468-2.381.513.513,0,0,1,.9.083.538.538,0,0,1-.062.533,22.154,22.154,0,0,0-1.4,2.272.519.519,0,0,1-.258.236Zm3.135-4.456a.512.512,0,0,1-.619-.19.537.537,0,0,1,.045-.659,22.486,22.486,0,0,1,1.992-1.943.51.51,0,0,1,.515-.1.526.526,0,0,1,.339.41.535.535,0,0,1-.186.5,21.559,21.559,0,0,0-1.9,1.853.51.51,0,0,1-.182.131Zm4.107-3.537a.513.513,0,0,1-.646-.251.535.535,0,0,1,.173-.683,22.225,22.225,0,0,1,2.4-1.387.513.513,0,0,1,.692.244.534.534,0,0,1-.239.707,21.242,21.242,0,0,0-2.29,1.32.511.511,0,0,1-.089.049Zm7.431-3.135a.477.477,0,0,1-.087.027,21.276,21.276,0,0,0-2.209.6c-.11.036-.218.073-.325.111a.516.516,0,0,1-.658-.328.533.533,0,0,1,.022-.4.516.516,0,0,1,.3-.267c.115-.04.229-.079.345-.117a22.178,22.178,0,0,1,2.313-.631.516.516,0,0,1,.6.362.531.531,0,0,1-.3.645Z" transform="translate(-49.916 -71.617)"/></g><g class="d" transform="translate(44.422 77.126)"><path class="e" d="M79.017,112.322a.514.514,0,0,1-.676-.288.533.533,0,0,1,.282-.69,21.159,21.159,0,0,0,2.321-1.165.512.512,0,0,1,.706.2.535.535,0,0,1-.194.721,22.345,22.345,0,0,1-2.433,1.22Zm-2.5.892a.556.556,0,0,1-.053.019,22.178,22.178,0,0,1-2.648.594.519.519,0,0,1-.592-.44.528.528,0,0,1,.431-.6,21.235,21.235,0,0,0,2.527-.567.516.516,0,0,1,.629.337.532.532,0,0,1-.293.661Zm7.094-3.564a.513.513,0,0,1-.645-.232.536.536,0,0,1,.142-.683,21.642,21.642,0,0,0,1.976-1.7.51.51,0,0,1,.732.018.537.537,0,0,1-.018.748,22.614,22.614,0,0,1-2.072,1.785A.528.528,0,0,1,83.611,109.65Zm-12.321,4.4a.49.49,0,0,1-.177.038,21.654,21.654,0,0,1-2.712-.076.529.529,0,0,1,.092-1.053,20.908,20.908,0,0,0,2.586.073.519.519,0,0,1,.525.419.53.53,0,0,1-.314.6Zm16.146-8.126a.511.511,0,0,1-.612-.176.537.537,0,0,1,.018-.649,21.725,21.725,0,0,0,1.516-2.138.512.512,0,0,1,.715-.163.536.536,0,0,1,.159.73,22.958,22.958,0,0,1-1.59,2.242.515.515,0,0,1-.207.154Zm2.838-4.554a.51.51,0,0,1-.572-.127.537.537,0,0,1-.089-.591,22.342,22.342,0,0,0,.973-2.447.515.515,0,0,1,.656-.332.531.531,0,0,1,.325.67,23.35,23.35,0,0,1-1.019,2.565.522.522,0,0,1-.273.261Zm1.688-5.117a.51.51,0,0,1-.526-.085.536.536,0,0,1-.175-.513,22.1,22.1,0,0,0,.37-2.614.518.518,0,1,1,1.032.087,23.383,23.383,0,0,1-.387,2.741.527.527,0,0,1-.314.382Z" transform="translate(-64.031 -92.556)"/><path class="e" d="M66.373,111.311a.508.508,0,0,1-.3.027c-.433-.095-.866-.2-1.285-.323a.53.53,0,0,1-.361-.651.517.517,0,0,1,.637-.368c.4.113.813.217,1.227.308a.532.532,0,0,1,.084,1.007Z" transform="translate(-64.405 -90.297)"/></g><path class="e" d="M65.269,109.193a.257.257,0,0,0,.3-.036l2.365-2.187a13.631,13.631,0,0,0,4.476.508l1.839,2.661a.258.258,0,0,0,.287.1l3.676-1.089a.267.267,0,0,0,.189-.241l.158-3.252a13.956,13.956,0,0,0,3.515-2.876l3.145.554a.259.259,0,0,0,.274-.134l1.845-3.424a.273.273,0,0,0-.035-.309l-2.142-2.415a14.464,14.464,0,0,0,.5-4.571l2.606-1.877a.271.271,0,0,0,.1-.294L87.3,86.559a.264.264,0,0,0-.236-.193L83.879,86.2a14.165,14.165,0,0,0-2.816-3.588l.543-3.211a.269.269,0,0,0-.132-.28l-3.354-1.884a.259.259,0,0,0-.3.036l-2.365,2.187a13.629,13.629,0,0,0-4.476-.507L69.137,76.3a.259.259,0,0,0-.287-.1l-3.676,1.089a.267.267,0,0,0-.189.241l-.158,3.252a13.961,13.961,0,0,0-3.514,2.875L58.167,83.1a.26.26,0,0,0-.274.135l-1.845,3.424a.273.273,0,0,0,.035.309l2.142,2.415a14.479,14.479,0,0,0-.5,4.571l-2.606,1.877a.269.269,0,0,0-.1.293l1.066,3.754a.265.265,0,0,0,.236.193l3.185.161a14.157,14.157,0,0,0,2.816,3.589l-.543,3.21a.27.27,0,0,0,.132.28Z" transform="translate(-20.983 -17.553)"/><path class="f" d="M71.926,95.435a3.9,3.9,0,0,1-5.049-2.086,4.045,4.045,0,0,1,1.855-5.229,3.885,3.885,0,0,1,5.186,1.7,4.054,4.054,0,0,1-1.472,5.355,3.943,3.943,0,0,1-.521.261Zm-2.534-6.441a2.945,2.945,0,0,0-1.41,4.216,2.849,2.849,0,0,0,3.942,1.052h0a2.975,2.975,0,0,0,1.128-3.834,2.857,2.857,0,0,0-3.66-1.434Z" transform="translate(-19.757 -16.059)"/><path class="f" d="M74.713,101.571a9.677,9.677,0,0,1-2.893.7l-.089.007a.517.517,0,0,1-.517-.329.533.533,0,0,1,.444-.726,8.6,8.6,0,0,0,1.83-.333h0l.1-.03a8.606,8.606,0,0,0,3.661-2.243A8.931,8.931,0,0,0,78.659,96.7l.01-.017.028-.053a9.007,9.007,0,0,0,.734-6.772q-.126-.441-.3-.866a8.665,8.665,0,0,0-10.944-5.082,8.943,8.943,0,0,0-5.511,10.91q.124.435.289.855a8.881,8.881,0,0,0,2.145,3.183.537.537,0,0,1,.018.738.51.51,0,0,1-.722.037,9.944,9.944,0,0,1-2.4-3.561q-.185-.47-.324-.956a10.005,10.005,0,0,1,6.173-12.18,9.694,9.694,0,0,1,12.234,5.659,10.211,10.211,0,0,1,.328.968A10.028,10.028,0,0,1,74.713,101.571Z" transform="translate(-20.314 -16.75)"/><rect class="g" width="5.7" height="132.07" transform="translate(25.488 20.377)"/><rect class="g" width="48.767" height="49.794" rx="10.421" transform="translate(3.882 7.071)"/><rect class="h" width="43.393" height="44.306" rx="9.26" transform="translate(6.669 9.51)"/><path class="g" d="M42.141,40.983l-2.85-1.428a.7.7,0,0,0-.788.115l-.309.285-.5.461-.321.295a.734.734,0,0,0-.191.784l1.091,3.043a1.406,1.406,0,0,0,1.013.915l1.928.434L53.72,60.062l.721-.663.5-.461.681-.625L43.115,44.137l-.2-2.014a1.429,1.429,0,0,0-.771-1.14Z" transform="translate(-22.884 -22.312)"/><path class="i" d="M41.919,41.12l-2.583-1.3a.65.65,0,0,0-.723.083l-.279.256-.449.415-.289.266a.684.684,0,0,0-.156.723l.99,2.749a1.277,1.277,0,0,0,.921.825l1.743.388L52.373,58.311l.64-.588.451-.415.705-.648L42.891,43.873,42.663,42.1A1.282,1.282,0,0,0,41.919,41.12Z" transform="translate(-22.857 -22.278)"/><path class="j" d="M62.651,61.324l-8.891-8.1-4.488,4.143,6.839,9.649a6.015,6.015,0,0,0,2.539,2.056l2.727,1.187a1.318,1.318,0,0,0,1.4-.2l1.866-1.717a1.386,1.386,0,0,0,.373-1.27l-.459-2.337A6.219,6.219,0,0,0,62.651,61.324Z" transform="translate(-21.593 -20.531)"/><path class="g" d="M54.291,52.8a.768.768,0,0,1-.054,1.069L49.739,58a.73.73,0,0,1-1.046-.056l-.055-.06a.767.767,0,0,1,.055-1.068l4.5-4.136a.731.731,0,0,1,1.047.055Z" transform="translate(-21.681 -20.626)"/><path class="g" d="M60.691,66.738a.656.656,0,0,1-.047.913l-.009.008a.624.624,0,0,1-.895-.048L51.264,58a.656.656,0,0,1,.047-.913l.009-.009a.624.624,0,0,1,.895.048Z" transform="translate(-21.399 -20.052)"/><path class="g" d="M62.7,64.932a.656.656,0,0,1-.047.913l-.009.009a.624.624,0,0,1-.895-.048L53.269,56.2a.656.656,0,0,1,.047-.913l.009-.008a.624.624,0,0,1,.895.048Z" transform="translate(-21.186 -20.286)"/><path class="g" d="M36.344,61.846l-.6.571c-1.029.979-1.339,2.351-.693,3.057l.768.844c.65.708,2.008.489,3.035-.491l.6-.571c.04-.038.079-.077.118-.116l17.069-17.71-1.675-1.836-18.5,16.14C36.424,61.771,36.383,61.808,36.344,61.846Zm.827.808c.775-.737,1.751-.954,2.181-.482s.149,1.447-.626,2.187-1.751.954-2.181.482-.149-1.449.624-2.187Z" transform="translate(-23.142 -21.52)"/><path class="g" d="M58.443,39.827l-3.481,3.316a1.126,1.126,0,0,0-.342.92l.163,1.765a1.1,1.1,0,0,0,.908.992l1.712.29a1.076,1.076,0,0,0,.923-.284l3.484-3.316a.837.837,0,0,1,1.413.592,6.477,6.477,0,0,1-2.021,4.86,5.645,5.645,0,0,1-8.288-.43,5.931,5.931,0,0,1,.162-8.472,6.2,6.2,0,0,1,4.89-1.716A.864.864,0,0,1,58.443,39.827Z" transform="translate(-21.387 -22.463)"/><path class="k" d="M58.72,40.124l-3.484,3.312a1.129,1.129,0,0,0-.343.921l.163,1.765a1.106,1.106,0,0,0,.909,1l1.712.29a1.077,1.077,0,0,0,.923-.285l3.484-3.312A.837.837,0,0,1,63.5,44.4a6.479,6.479,0,0,1-2.021,4.861,5.645,5.645,0,0,1-8.288-.43,5.932,5.932,0,0,1,.163-8.472,6.2,6.2,0,0,1,4.89-1.717A.862.862,0,0,1,58.72,40.124Z" transform="translate(-21.358 -22.425)"/><path class="l" d="M36.564,62.082l-.6.571c-1.029.98-1.339,2.351-.693,3.057l.768.844c.65.708,2.008.489,3.035-.491l.6-.571.118-.116L56.86,47.667l-1.676-1.836-18.5,16.14C36.645,62.007,36.6,62.044,36.564,62.082Zm.827.808c.775-.737,1.751-.954,2.181-.482s.149,1.447-.626,2.187-1.751.954-2.18.482-.152-1.449.625-2.187Z" transform="translate(-23.119 -21.489)"/><path class="m" d="M116.182,114.4c18.669,4.766,29.622,17.508,35.024,18.8s27.036,2.467,30.565,5.814.157,5.728,4.694,10.028c5.019,14.459-10.52,18.785-10.52,18.785L34.7,166.652s-9.531.875-9.743-6.075a123.856,123.856,0,0,1,.141-16.332c.5-6.259,2.977-6.963,4.342-10.209s14.625-3.6,17.206-7.208,5.653-9.368,16.6-11.331C78.369,112.785,105.353,111.635,116.182,114.4Z" transform="translate(-24.201 -12.804)"/><path class="n" d="M24.255,155.169c.243,7.989,13.509,6.572,13.567,6.568,0,0,10.547-8.243-3.962-7.927a23.028,23.028,0,0,1-8.78-2.472Z" transform="translate(-24.255 -7.808)"/><path class="o" d="M174.313,148.041s.139,2.038-3.6,4.119c-4.635,2.58-23.641-.4-23.641-.4l1.08,10.711,15.166.79C162.963,163.364,183.233,162.172,174.313,148.041Z" transform="translate(-11.19 -8.236)"/><path class="p" d="M46.7,136.6s-.455-3.628,3.278-8.075,5.911-7.381,8.781-8.139,23.878-3.723,25.258-1.44,3.157,16.3,3.157,16.3Z" transform="translate(-21.868 -12.118)"/><path class="q" d="M59.144,120.018c2.353-.358,20.222-2.48,24.836-1.874l1.194,4.69L46.687,136.611a10.7,10.7,0,0,1,1.739-5.929C51.656,125.736,56.684,120.333,59.144,120.018Z" transform="translate(-21.869 -12.126)"/><path class="r" d="M86.112,119c.582,2.708,2.726,15.916,2.726,15.916l45.425-.215s-14.319-13.436-25.327-15.562S85.74,117.565,86.112,119Z" transform="translate(-17.675 -12.166)"/><path class="s" d="M107.418,118.192c-8.966-1.27-12.254-1.029-21.653-.189l.905,3.838s13.989-2.8,27.023-1.181A20.007,20.007,0,0,0,107.418,118.192Z" transform="translate(-17.711 -12.221)"/><path class="t" d="M166.62,135.447s-7.36-2.412-9.152,3.531c-1.712,5.664,14.9,7.188,14.9,7.188S171.136,137.765,166.62,135.447Z" transform="translate(-10.097 -9.931)"/><path class="u" d="M44.472,130.626a.42.42,0,0,0,.123-.019c1.728-.533,3.184-2.392,4.87-4.544,2.461-3.143,5.252-6.706,9.8-7.592,8.726-1.7,21.953-2.879,22.083-2.891a.424.424,0,0,0,.29-.154.441.441,0,0,0,.1-.318.433.433,0,0,0-.149-.3.415.415,0,0,0-.313-.1c-.133.012-13.4,1.194-22.172,2.9-4.86.947-7.882,4.805-10.309,7.9-1.594,2.038-2.975,3.8-4.449,4.254a.436.436,0,0,0-.3.481.43.43,0,0,0,.424.372Z" transform="translate(-22.15 -12.558)"/><path class="u" d="M32.246,133.71a.427.427,0,0,0,.383-.241c.717-1.475,3.891-2.144,6.96-2.791,1.1-.232,2.233-.47,3.277-.749a.438.438,0,0,0,.292-.529.427.427,0,0,0-.509-.315c-1.022.274-2.146.511-3.233.739-3.421.723-6.651,1.4-7.552,3.259a.444.444,0,0,0-.023.333.433.433,0,0,0,.215.252A.412.412,0,0,0,32.246,133.71Z" transform="translate(-23.45 -10.695)"/><path class="u" d="M88.927,162.954h.043a.466.466,0,0,0,.433-.379.475.475,0,0,0-.256-.52c-.886-1.453-2.032-17.162-2.554-26.844a.449.449,0,1,0-.9.048c0,.068.374,6.91.9,13.649C87.681,162.622,88.346,162.954,88.927,162.954Z" transform="translate(-17.719 -9.956)"/><path class="v" d="M77.968,162.675a15.164,15.164,0,0,0,.159-2.282,16.874,16.874,0,1,0-33.742-.014,15.609,15.609,0,0,0,.159,2.3Z" transform="translate(-22.113 -8.864)"/><path class="w" d="M13.463-.577a13.551,13.551,0,0,1,13.75,13.75,14.25,14.25,0,0,1-14.04,14.04A13.551,13.551,0,0,1-.577,13.463,14.25,14.25,0,0,1,13.463-.577Z" transform="translate(20.178 151.114) rotate(-45)"/><path class="x" d="M10.934-.468A11,11,0,0,1,22.1,10.7,11.572,11.572,0,0,1,10.7,22.1,11,11,0,0,1-.468,10.934,11.572,11.572,0,0,1,10.934-.468Z" transform="translate(23.717 151.114) rotate(-45)"/><path class="g" d="M69.352,163.365a.2.2,0,0,1-.166-.091.208.208,0,0,1-.018-.191,10.012,10.012,0,0,0,.761-3.85,9.8,9.8,0,0,0-9.688-9.892,9.542,9.542,0,0,0-4.73,1.257.2.2,0,0,1-.271-.079.206.206,0,0,1,.077-.276,9.931,9.931,0,0,1,4.924-1.308,10.2,10.2,0,0,1,10.086,10.3,10.417,10.417,0,0,1-.792,4.009A.2.2,0,0,1,69.352,163.365Z" transform="translate(-20.961 -8.12)"/><path class="y" d="M152.8,163.207a14.623,14.623,0,0,0,.159-2.243,16.874,16.874,0,1,0-33.742-.025,15.194,15.194,0,0,0,.159,2.267Z" transform="translate(-14.152 -8.787)"/><path class="w" d="M13.463-.577a13.551,13.551,0,0,1,13.75,13.75,14.25,14.25,0,0,1-14.04,14.04A13.551,13.551,0,0,1-.577,13.463,14.25,14.25,0,0,1,13.463-.577Z" transform="translate(102.974 151.801) rotate(-45)"/><path class="z" d="M10.934-.468A11,11,0,0,1,22.1,10.7,11.572,11.572,0,0,1,10.7,22.1,11,11,0,0,1-.468,10.934,11.572,11.572,0,0,1,10.934-.468Z" transform="translate(106.512 151.801) rotate(-45)"/><path class="g" d="M144.187,163.975a.2.2,0,0,1-.166-.091.207.207,0,0,1-.018-.191,10.009,10.009,0,0,0,.761-3.85,9.8,9.8,0,0,0-9.688-9.892,9.534,9.534,0,0,0-4.729,1.257.2.2,0,0,1-.263-.083.206.206,0,0,1,.068-.272,9.935,9.935,0,0,1,4.924-1.308,10.205,10.205,0,0,1,10.086,10.3,10.418,10.418,0,0,1-.793,4.009A.2.2,0,0,1,144.187,163.975Z" transform="translate(-12.999 -8.041)"/><path class="aa" d="M124.776,132.836l-3.448-3.69a10.171,10.171,0,0,0-5.208-3.024l-6.82-1.514a3.306,3.306,0,0,0-3.868,3.12l-.048.491a3.459,3.459,0,0,0,3.263,3.957l8.786-.11a3.04,3.04,0,0,1,2.822,2.023l.162.415a1.367,1.367,0,0,0,1.251.907h2.16A1.525,1.525,0,0,0,124.776,132.836Z" transform="translate(-15.626 -11.284)"/><path class="ab" d="M90.889,135.611h11.4a1.4,1.4,0,0,1,1.207,1.891,5.17,5.17,0,0,1-4.714,3.766c-2.657.208-6-1.447-8.523-3.021A1.437,1.437,0,0,1,90.889,135.611Z" transform="translate(-17.303 -9.847)"/><path class="ac" d="M25.048,140.636,27.04,141a1.411,1.411,0,0,1,1.146,1.4v4.8a1.4,1.4,0,0,1-1.386,1.415H24.817Z" transform="translate(-24.195 -9.196)"/><path class="ad" d="M111.839,105.8l2.156,3.014a18.344,18.344,0,0,0,9.1-1.548,21.312,21.312,0,0,0-2.631-7.016A21.317,21.317,0,0,1,111.839,105.8Z" transform="translate(-14.938 -14.432)"/><path class="ae" d="M130.453,100.467l-4.515-10.7a24.884,24.884,0,0,1-6.3,11.847,21.294,21.294,0,0,1,2.631,7.016A17.112,17.112,0,0,0,130.453,100.467Z" transform="translate(-14.109 -15.792)"/><path class="af" d="M134.441,173.659c-3.064.144-6.031.054-8.011-.05,1.8-1.311,5.958-4.16,9.434-5.3l2.387-.145a10.067,10.067,0,0,1,1.1,4.129C138.95,172.8,137.8,173.5,134.441,173.659Z" transform="translate(-13.386 -5.626)"/><path class="ag" d="M126.424,173.153l.025-.017c1.98.1,4.947.194,8.011.05,3.355-.157,4.511-.86,4.906-1.364.014.132.027.263.038.4a1.157,1.157,0,0,1-.262.834,1.11,1.11,0,0,1-.763.4c-2.51.194-8.733.632-11.734.471a.42.42,0,0,1-.381-.307.432.432,0,0,1,.159-.468Z" transform="translate(-13.405 -5.152)"/><path class="ah" d="M153.061,172.805a24.033,24.033,0,0,1,.863-4.135c.436-.852,1.93,0,1.93,0a3.983,3.983,0,0,1,1.53,1.331c.308.531,1.158,2.04,1.734,3.064a.7.7,0,0,1,.091.362l-5.98.213A1.243,1.243,0,0,1,153.061,172.805Z" transform="translate(-10.554 -5.61)"/><path class="ai" d="M159.192,172.84a.689.689,0,0,1-.663.676l-4.26.121a1.2,1.2,0,0,1-1.057-.582Z" transform="translate(-10.537 -5.02)"/><path class="aj" d="M121.286,88.913c3.813-1.02,10.846-2.617,16.445-2.276a2.561,2.561,0,0,1,2.39,2.43c.846,15.226,2,28.736,4.178,36.6a27.625,27.625,0,0,1-14.525,2.175,166.582,166.582,0,0,1-9.4-27.168s-1.571-8.2-.045-10.931A1.593,1.593,0,0,1,121.286,88.913Z" transform="translate(-14.105 -16.204)"/><path class="ak" d="M129.97,79.207s.963,5.865,1.25,8.577a1.067,1.067,0,0,1-.565,1.06,7.451,7.451,0,0,1-5.746.626.99.99,0,0,1-.658-.965l.168-7.83Z" transform="translate(-13.617 -17.161)"/><path class="al" d="M123.946,73.454s-1.858,4.357-1.983,6.645-.608,3.771,1.983,4.231a5.477,5.477,0,0,0,5.953-3.135s1.852-3.511,1.437-4.948S123.946,73.454,123.946,73.454Z" transform="translate(-13.873 -17.907)"/><path class="am" d="M128.922,80.061h-.328s1.349-2.825.164-3.322-4.813-.49-5.826-2.192c-.977-1.64,1.6-2.647,2.906-3.24a6.28,6.28,0,0,0-1.507-.172l-.269-.2c.074.142.931-.534.974-.69s1.056-.78,1.135-.65c.31.509-.99,1.166,1.262,1.59,3.2.6,5.308,1.923,5.36,4.178a.181.181,0,0,0,.094.155.174.174,0,0,0,.178-.008c.236-.147-.7-.215-.2.218a1.722,1.722,0,0,1,.645,1.153,2.26,2.26,0,0,1-.731,1.624,1.1,1.1,0,0,0-.344.825,8.512,8.512,0,0,0,.231.9c.049.405-.345.684-.65.862-.422.247-.839.5-1.24.784-.226.157-.677.637-.973.56a.18.18,0,0,1-.133-.186l.121-2a.183.183,0,0,0-.048-.134.175.175,0,0,0-.129-.056Z" transform="translate(-13.781 -18.41)"/><path class="an" d="M128.252,79.472s.709-2.783,1.931-2-.634,3.119-1.617,3.223Z" transform="translate(-13.192 -17.404)"/><path class="ao" d="M147.072,106.69a24.824,24.824,0,0,1,.827,11.192l2.485.677s3.211-3.9,2.476-12.552A11.894,11.894,0,0,0,147.072,106.69Z" transform="translate(-11.19 -13.701)"/><path class="ap" d="M153.98,108.478c-.083-.973-.213-2-.405-3.1C151.9,95.837,139.913,88.5,137.093,86.889a.379.379,0,0,0-.388.009.4.4,0,0,0-.184.349l.4,12.973c6.672.916,9.832,4.815,11.273,8.941A11.886,11.886,0,0,1,153.98,108.478Z" transform="translate(-12.312 -16.171)"/><path class="aq" d="M106.406,106.485a1.637,1.637,0,0,1-.882-1.08c-.236-.925-.442-2.375.531-2.645,1.45-.4,3.491,2.576,3.491,2.576l.881,2.184,1.009.727C110.387,108.361,108.526,107.568,106.406,106.485Z" transform="translate(-15.63 -14.112)"/><path class="ar" d="M133.632,77.9q-2.278-.635-4.551-1.293c-2.585-.752-5.213-1.416-7.766-2.278-.543-.181-1.086-.362-1.634-.525a1.976,1.976,0,0,1-.96-.548c-.242-.3-.139-.766.276-.784a10.316,10.316,0,0,1,2.156.2c.2.036,2.2.422,2.2.458,0,0,.761-5.36,6.7-3.493C137.2,71.888,134.52,78.381,133.632,77.9Z" transform="translate(-14.219 -18.454)"/><path class="as" d="M128.8,123.516c.148.789,5.369,34.155,5.685,51.421a.572.572,0,0,0,.462.572,9.635,9.635,0,0,0,3.2-.023.4.4,0,0,0,.311-.382c.182-3.217,1.65-30.421-.148-43.228,0,0,14.844,34.232,17.094,43.671a.46.46,0,0,0,.464.372,10.337,10.337,0,0,0,3.008-.585.88.88,0,0,0,.5-1.012c-1.257-5.649-10.067-44.568-16.049-53.143Z" transform="translate(-13.133 -11.719)"/><path class="at" d="M137.61,130.464a.2.2,0,0,0,.18-.122.2.2,0,0,0-.04-.216l-1.988-2.075a.192.192,0,0,0-.272,0,.2.2,0,0,0-.007.278l1.988,2.076a.193.193,0,0,0,.139.06Z" transform="translate(-12.428 -10.835)"/><path class="au" d="M129.6,126.886l-5.432-13.127-.9-14.813,11.093-1.025a71.3,71.3,0,0,0,7.67,11.685,1.144,1.144,0,0,1,.24.464l3.471,13.739Z" transform="translate(-13.722 -14.734)"/><path class="av" d="M123.5,100.25c-1.176-3.476-1.578-7.091-2.37-11.5,1.107-.714,1.492-1.05,2.557-.805.726,4.423,1.486,8.612,2.438,12.47Z" transform="translate(-13.949 -16.038)"/><path class="aw" d="M131.26,99.64a67.073,67.073,0,0,1,.945-13.023,4.6,4.6,0,0,1,2.919,0c-1.057,4.68-1.07,9.281-1.607,13.473Z" transform="translate(-12.872 -16.231)"/><path class="ax" d="M168.03,128.561l2.211,1.373c3.794,2.356,5.609,6.383,4.053,9l-1.849,3.106c-1.556,2.612-5.893,2.82-9.687.464l-2.211-1.373q-.22-.137-.433-.282L96.284,97.25l4.03-6.765L167.584,128.3C167.735,128.384,167.883,128.472,168.03,128.561Zm-2.047,3.037c-2.857-1.774-6.009-1.809-7.041-.074s.446,4.576,3.3,6.35,6.009,1.809,7.041.074-.446-4.574-3.3-6.348Z" transform="translate(-16.592 -15.699)"/><path class="ay" d="M82.682,75.817l12.83,7.966A3.525,3.525,0,0,1,97.146,86.4l.6,5.562a3.526,3.526,0,0,1-2.185,3.669l-5.113,2.014a3.383,3.383,0,0,1-3.031-.277L74.589,89.4a2.658,2.658,0,0,0-4,2.75,20.247,20.247,0,0,0,9.284,13.7c9.227,5.727,19.948,2.324,25.346-6.737s3.425-20.348-5.8-26.077A19.463,19.463,0,0,0,83.237,70.93,2.727,2.727,0,0,0,82.682,75.817Z" transform="translate(-19.33 -18.35)"/><path class="az" d="M82.018,76.909l12.829,7.967a3.526,3.526,0,0,1,1.635,2.62l.6,5.562A3.526,3.526,0,0,1,94.9,96.727l-5.113,2.014a3.385,3.385,0,0,1-3.031-.277L73.924,90.5a2.658,2.658,0,0,0-3.995,2.751,20.245,20.245,0,0,0,9.284,13.7c9.226,5.728,19.948,2.324,25.345-6.737s3.425-20.348-5.8-26.077a19.465,19.465,0,0,0-16.186-2.114A2.728,2.728,0,0,0,82.018,76.909Z" transform="translate(-19.4 -18.208)"/><path class="ba" d="M167.5,129.435l2.211,1.373c3.794,2.356,5.609,6.383,4.053,9l-1.85,3.1c-1.556,2.612-5.892,2.82-9.687.464L160.016,142q-.22-.136-.433-.282L95.754,98.122l4.03-6.766,67.271,37.815Q167.28,129.3,167.5,129.435Zm-2.047,3.036c-2.856-1.774-6.009-1.809-7.041-.074s.447,4.576,3.307,6.35,6.009,1.809,7.041.074-.448-4.576-3.307-6.35Z" transform="translate(-16.649 -15.586)"/><path class="bb" d="M148.262,115.384h-3.07s2.492,1.527,2.576,3.131a16.406,16.406,0,0,1-1.492,5.836c-.549.99,6.959-1.474,4.31-8.967Z" transform="translate(-11.39 -12.47)"/></g></g></g></svg>