<svg xmlns="http://www.w3.org/2000/svg" width="38.278" height="42.605" viewBox="0 0 38.278 42.605"><defs><style>.a{fill:#fff;}</style></defs><path class="a" d="M32.285,24.764c-.02-3.491,1.668-6.126,5.085-8.066-1.912-2.559-4.8-3.966-8.614-4.242-3.61-.266-7.556,1.969-9,1.969-1.525,0-5.024-1.874-7.77-1.874C6.312,12.637.281,16.784.281,25.221a22.336,22.336,0,0,0,1.464,7.724c1.3,3.491,6,12.051,10.9,11.909,2.563-.057,4.373-1.7,7.709-1.7,3.234,0,4.912,1.7,7.77,1.7,4.942-.067,9.193-7.847,10.434-11.347-6.631-2.92-6.275-8.561-6.275-8.741ZM26.529,9.146a8.562,8.562,0,0,0,2.441-6.9,11.051,11.051,0,0,0-6.905,3.32,8.756,8.756,0,0,0-2.6,6.839c2.654.19,5.075-1.084,7.068-3.263Z" transform="translate(-0.281 -2.25)"/></svg>