<svg xmlns="http://www.w3.org/2000/svg" xmlns:xlink="http://www.w3.org/1999/xlink" width="305" height="228" viewBox="0 0 305 228"><defs><style>.a,.c{fill:#fff;}.a{stroke:#707070;}.b{clip-path:url(#a);}.d{fill:#8f6d5d;}.e,.m{opacity:0.15;}.f,.h,.k,.m,.s,.w{fill:none;}.f,.h,.k,.l,.m,.q,.s,.w{stroke:#474747;stroke-linecap:round;stroke-linejoin:round;}.f,.h,.k,.l,.m,.q{stroke-miterlimit:10;}.f,.l,.m,.q{stroke-width:1.482px;}.g{fill:#77ba85;}.h{stroke-width:1.482px;}.i{fill:#f6f9ea;}.j{fill:#97cd78;}.k{stroke-width:1.482px;}.l,.q{fill:#474747;}.l{opacity:0.32;}.n{fill:#f58870;}.o{fill:#dd7868;}.p{fill:#ffa399;}.q{opacity:0.3;}.r{opacity:0.46;}.s,.w{stroke-width:0.988px;}.s{stroke-dasharray:13.958 9.97;}.t{fill:#f79765;}.u{fill:#e27444;}.v{fill:#ffb797;}.w{stroke-dasharray:9.839 11.807;}.x{opacity:0.6;}.y{fill:#fffcee;}.z{fill:#fdb740;}.aa{fill:#fff3c0;opacity:0.88;}.ab{fill:#f29e25;}</style><clipPath id="a"><rect class="a" width="305" height="228" transform="translate(548 139)"/></clipPath></defs><g class="b" transform="translate(-548 -139)"><g transform="translate(577 139)"><rect class="c" width="247" height="287"/><path class="d" d="M15.61,236.922c0,.618-.3.914-.642.914a.476.476,0,0,1-.519-.346.543.543,0,0,1-.445.2.693.693,0,0,1,0-1.383.537.537,0,0,1,.4.173v-.124h.4v.963c0,.2.074.346.247.346.222,0,.42-.222.42-.741a1.293,1.293,0,0,0-1.334-1.309,1.371,1.371,0,0,0-1.383,1.408,1.389,1.389,0,0,0,1.457,1.408,2.948,2.948,0,0,0,.716-.1v.148a2.005,2.005,0,0,1-.716.1,1.532,1.532,0,1,1-.074-3.063A1.381,1.381,0,0,1,15.61,236.922ZM14.4,237a.333.333,0,0,0-.321-.346.306.306,0,0,0-.321.346.311.311,0,0,0,.321.321C14.277,237.342,14.4,237.194,14.4,237Z"/><path class="d" d="M17.142,235.91v.494A.554.554,0,0,0,16.5,237v1.062H16.03v-2.124H16.5v.346A.65.65,0,0,1,17.142,235.91Z"/><path class="d" d="M18.426,237.688a.652.652,0,0,0,.543-.272l.371.222a1.073,1.073,0,0,1-.939.469A1.09,1.09,0,0,1,17.241,237a1.077,1.077,0,0,1,1.111-1.111A1.065,1.065,0,0,1,19.414,237a.544.544,0,0,1-.025.2H17.71A.7.7,0,0,0,18.426,237.688Zm.568-.865a.587.587,0,0,0-.618-.519.619.619,0,0,0-.642.519Z"/><path class="d" d="M21.958,235.934v2.124h-.469v-.3a.912.912,0,0,1-.741.37,1.1,1.1,0,0,1-1.062-1.111,1.066,1.066,0,0,1,1.062-1.112.892.892,0,0,1,.741.346v-.3h.469ZM21.514,237a.667.667,0,1,0-.667.667A.635.635,0,0,0,21.514,237Z"/><path class="d" d="M22.5,234.971h.469v3.088H22.5Z"/><path class="d" d="M25.416,235.934l-.815,2.124h-.519l-.815-2.124h.494l.593,1.605.593-1.605Z"/><path class="d" d="M25.737,235.934h.469v2.2c0,.593-.3.865-.865.815V238.5c.272.025.42-.074.42-.37v-2.2Zm-.049-.593a.3.3,0,1,1,.593,0,.3.3,0,1,1-.593,0Z"/><path class="d" d="M28.652,235.934l-.815,2.174a1.014,1.014,0,0,1-1.037.79v-.42a.513.513,0,0,0,.568-.42l.025-.049-.889-2.075H27l.642,1.531.543-1.531h.469Z"/><path class="d" d="M52.339,231.859a.9.9,0,0,1-.889.939h-.741V230.92h.741A.9.9,0,0,1,52.339,231.859Zm-.247,0a.672.672,0,0,0-.642-.716h-.494v1.408h.494A.637.637,0,0,0,52.092,231.859Z"/><path class="d" d="M54.216,232.378h-.84l-.148.42h-.272l.692-1.877h.272l.692,1.877H54.34Zm-.074-.222-.346-.939-.346.939Z"/><path class="d" d="M55.921,232.032v.766h-.247v-.766l-.667-1.111h.272l.519.889.519-.889h.272Z"/><path class="d" d="M59.65,230.92v.222l-.692,1.655h-.272l.692-1.655h-.914V230.9H59.65Z"/><path class="d" d="M61.626,232.279c0,.346-.272.543-.642.543s-.642-.2-.642-.543a.553.553,0,0,1,.3-.469.433.433,0,0,1-.222-.42.6.6,0,0,1,1.186,0,.512.512,0,0,1-.222.42A.562.562,0,0,1,61.626,232.279Zm-.247,0c0-.222-.173-.321-.4-.321s-.4.1-.4.321.173.321.4.321C61.231,232.6,61.379,232.476,61.379,232.279Zm-.716-.864c0,.2.148.3.346.3a.313.313,0,0,0,.346-.3c0-.2-.148-.3-.346-.3S60.663,231.217,60.663,231.414Z"/><path class="d" d="M14.548,231.859a.9.9,0,0,1-.889.939h-.741V230.92h.741A.9.9,0,0,1,14.548,231.859Zm-.247,0a.672.672,0,0,0-.642-.716h-.494v1.408h.494A.637.637,0,0,0,14.3,231.859Z"/><path class="d" d="M16.549,232.575v.247H15.413v-1.877h1.111v.247H15.66v.568h.79v.222h-.79v.593h.889Z"/><path class="d" d="M17.29,232.378l.222-.124a.491.491,0,0,0,.494.346c.272,0,.4-.124.4-.3,0-.2-.173-.247-.445-.346-.3-.1-.593-.2-.593-.543a.545.545,0,0,1,.593-.543.658.658,0,0,1,.642.42l-.2.124a.431.431,0,0,0-.42-.3c-.2,0-.346.1-.346.272s.124.247.4.321c.321.1.642.2.642.568a.576.576,0,0,1-.642.543A.7.7,0,0,1,17.29,232.378Z"/><path class="d" d="M19.76,230.92V232.8h-.247V230.92Z"/><path class="d" d="M22.551,231.982a.857.857,0,0,1-.914.865.96.96,0,0,1-.988-.988.981.981,0,0,1,1.8-.543l-.222.124a.685.685,0,0,0-.593-.346.741.741,0,0,0,0,1.482.616.616,0,0,0,.667-.494h-.692v-.222h.939Z"/><path class="d" d="M24.848,230.92V232.8h-.2l-.963-1.408V232.8H23.44V230.92h.2l.963,1.408V230.92Z"/><path class="d" d="M26.948,232.575v.247H25.811v-1.877h1.111v.247h-.864v.568h.79v.222h-.79v.593h.889Z"/><path class="d" d="M29.442,231.859a.9.9,0,0,1-.889.939h-.741V230.92h.741A.913.913,0,0,1,29.442,231.859Zm-.247,0a.672.672,0,0,0-.642-.716h-.494v1.408h.494A.637.637,0,0,0,29.2,231.859Z"/><path class="d" d="M32.9,232.279a.548.548,0,0,1-.543.543h-.815v-1.877h.741a.507.507,0,0,1,.519.519.48.48,0,0,1-.2.4A.41.41,0,0,1,32.9,232.279Zm-1.111-1.136v.568h.494a.28.28,0,0,0,.272-.3.3.3,0,0,0-.272-.3h-.494Zm.864,1.111a.285.285,0,0,0-.3-.3h-.568v.618h.568A.306.306,0,0,0,32.653,232.254Z"/><path class="d" d="M34.432,232.032v.766h-.247v-.766l-.667-1.111h.272l.519.889.519-.889H35.1Z"/><path class="d" d="M50.536,235.119h.519l.642,2.4.692-2.4h.469l.692,2.4.642-2.4h.519l-.865,3.063h-.593l-.642-2.223-.642,2.223h-.593Z"/><path class="d" d="M57.032,235.984v2.2h-.469v-.321a.925.925,0,0,1-.766.37,1.114,1.114,0,0,1-1.087-1.161A1.13,1.13,0,0,1,55.8,235.91a.925.925,0,0,1,.766.37v-.321h.469Zm-.469,1.112a.692.692,0,1,0-.692.692A.675.675,0,0,0,56.563,237.1Z"/><path class="d" d="M57.576,235h.469v3.186h-.469Z"/><path class="d" d="M58.588,235h.469v3.186h-.469Z"/><path class="d" d="M60.688,237.812a.667.667,0,0,0,.568-.272l.4.222a1.088,1.088,0,0,1-.963.469,1.161,1.161,0,1,1-.025-2.322,1.1,1.1,0,0,1,1.087,1.161.544.544,0,0,1-.025.2H60A.648.648,0,0,0,60.688,237.812Zm.593-.914a.625.625,0,0,0-.618-.543A.643.643,0,0,0,60,236.9Z"/><path class="d" d="M62.763,236.453v1.037c0,.272.173.272.543.247v.42c-.716.1-1.013-.124-1.013-.692v-1.037h-.4v-.445h.4v-.469l.469-.148v.617h.543v.445h-.543Z"/><path class="d" d="M208.987,231.859a.9.9,0,0,1-.889.939h-.741V230.92h.741A.9.9,0,0,1,208.987,231.859Zm-.222,0a.672.672,0,0,0-.642-.716h-.494v1.408h.494A.637.637,0,0,0,208.764,231.859Z"/><path class="d" d="M209.777,231.859a.97.97,0,0,1,.963-.988.991.991,0,0,1,.988.988.976.976,0,1,1-1.951,0Zm1.68,0a.723.723,0,0,0-.716-.741.708.708,0,0,0-.716.741.723.723,0,0,0,.716.741A.708.708,0,0,0,211.457,231.859Z"/><path class="d" d="M212.371,230.92h.272l.42,1.556.469-1.556h.247l.469,1.556.42-1.556h.272L214.4,232.8h-.3l-.445-1.507-.445,1.507h-.3Z"/><path class="d" d="M217.187,230.92V232.8h-.2l-.963-1.408V232.8h-.247V230.92h.2l.963,1.408V230.92Z"/><path class="d" d="M219.212,232.575v.247H218.15v-1.877h.247V232.6h.815Z"/><path class="d" d="M219.805,231.859a.97.97,0,0,1,.963-.988.991.991,0,0,1,.988.988.976.976,0,1,1-1.951,0Zm1.7,0a.723.723,0,0,0-.716-.741.708.708,0,0,0-.716.741.717.717,0,1,0,1.433,0Z"/><path class="d" d="M223.634,232.378h-.84l-.148.42h-.272l.692-1.877h.272l.692,1.877h-.247Zm-.074-.222-.346-.939-.346.939Z"/><path class="d" d="M226.474,231.859a.9.9,0,0,1-.889.939h-.741V230.92h.741A.9.9,0,0,1,226.474,231.859Zm-.247,0a.672.672,0,0,0-.642-.716h-.494v1.408h.494A.624.624,0,0,0,226.227,231.859Z"/><path class="d" d="M228.845,231.143v.617h.79v.247h-.79v.79H228.6V230.92h1.087v.247h-.84Z"/><path class="d" d="M231.241,232.081H230.8v.716h-.247V230.92h.741a.6.6,0,0,1,.593.593.587.587,0,0,1-.4.543l.445.766h-.272Zm-.445-.222h.494a.346.346,0,1,0,0-.692H230.8Z"/><path class="d" d="M232.649,231.859a.97.97,0,0,1,.963-.988.991.991,0,0,1,.988.988.976.976,0,1,1-1.951,0Zm1.7,0a.723.723,0,0,0-.716-.741.708.708,0,0,0-.716.741.717.717,0,1,0,1.433,0Z"/><path class="d" d="M237.219,232.8h-.247v-1.482l-.618,1.037h-.025l-.617-1.013V232.8h-.247V230.92h.272l.593.988.593-.988h.272V232.8Z"/><path class="d" d="M207.307,235.366a.3.3,0,1,1,.3.3A.3.3,0,0,1,207.307,235.366Zm.074.617h.469v2.2h-.469Z"/><path class="d" d="M208.394,235h.469v3.186h-.469Z"/><path class="d" d="M209.407,235h.469v3.186h-.469Z"/><path class="d" d="M210.444,235h.469v3.186h-.469Z"/><path class="d" d="M213.408,235.984v2.2h-.469v-.272a.758.758,0,0,1-.667.346.805.805,0,0,1-.84-.889v-1.334h.469v1.284a.474.474,0,0,0,.494.519c.321,0,.543-.173.543-.618v-1.161h.469Z"/><path class="d" d="M215.532,237.565c0,.445-.371.667-.865.667a.9.9,0,0,1-.889-.519l.4-.247a.493.493,0,0,0,.494.321c.2,0,.37-.074.37-.247,0-.4-1.186-.173-1.186-.963a.7.7,0,0,1,.79-.667.9.9,0,0,1,.815.445l-.4.222a.413.413,0,0,0-.42-.247c-.173,0-.321.074-.321.222C214.371,237,215.532,236.749,215.532,237.565Z"/><path class="d" d="M216.545,236.453v1.037c0,.272.173.272.543.247v.42c-.716.1-1.013-.124-1.013-.692v-1.037h-.4v-.445h.4v-.469l.469-.148v.617h.543v.445h-.543Z"/><path class="d" d="M218.694,235.959v.519a.57.57,0,0,0-.667.618v1.111h-.469v-2.2h.469v.37A.637.637,0,0,1,218.694,235.959Z"/><path class="d" d="M221.139,235.984v2.2h-.469v-.321a.925.925,0,0,1-.766.37,1.114,1.114,0,0,1-1.087-1.161,1.13,1.13,0,0,1,1.087-1.161.925.925,0,0,1,.766.37v-.321h.469Zm-.469,1.112a.692.692,0,1,0-.692.692A.675.675,0,0,0,220.67,237.1Z"/><path class="d" d="M222.374,236.453v1.037c0,.272.173.272.543.247v.42c-.716.1-1.013-.124-1.013-.692v-1.037h-.4v-.445h.4v-.469l.469-.148v.617h.543v.445h-.543Z"/><path class="d" d="M223.263,235.366a.3.3,0,1,1,.3.3A.3.3,0,0,1,223.263,235.366Zm.074.617h.469v2.2h-.469Z"/><path class="d" d="M224.227,237.1a1.16,1.16,0,0,1,1.161-1.161,1.144,1.144,0,0,1,1.161,1.161,1.16,1.16,0,0,1-1.161,1.161A1.176,1.176,0,0,1,224.227,237.1Zm1.852,0a.692.692,0,1,0-.692.692A.675.675,0,0,0,226.079,237.1Z"/><path class="d" d="M228.969,236.848v1.334H228.5V236.9a.474.474,0,0,0-.494-.519c-.321,0-.543.173-.543.617v1.161h-.469v-2.2h.469v.272a.758.758,0,0,1,.667-.346A.913.913,0,0,1,228.969,236.848Z"/><path class="d" d="M231.068,237.565c0,.445-.37.667-.865.667a.9.9,0,0,1-.889-.519l.4-.247a.493.493,0,0,0,.494.321c.2,0,.37-.074.37-.247,0-.4-1.186-.173-1.186-.963a.7.7,0,0,1,.79-.667.9.9,0,0,1,.815.445l-.4.222a.413.413,0,0,0-.42-.247c-.173,0-.321.074-.321.222C229.883,237,231.068,236.749,231.068,237.565Z"/><path class="d" d="M231.39,237.91a.321.321,0,1,1,.321.321A.327.327,0,0,1,231.39,237.91Z"/><path class="d" d="M232.254,237.1a1.144,1.144,0,0,1,1.161-1.161,1.064,1.064,0,0,1,.963.568l-.4.247a.645.645,0,0,0-.568-.346.655.655,0,0,0-.667.692.67.67,0,0,0,.667.692.639.639,0,0,0,.593-.346l.4.222a1.075,1.075,0,0,1-.988.568A1.124,1.124,0,0,1,232.254,237.1Z"/><path class="d" d="M234.576,237.1a1.16,1.16,0,0,1,1.161-1.161A1.144,1.144,0,0,1,236.9,237.1a1.16,1.16,0,0,1-1.161,1.161A1.176,1.176,0,0,1,234.576,237.1Zm1.852,0a.692.692,0,1,0-.692.692A.675.675,0,0,0,236.428,237.1Z"/><g class="e"><path class="f" d="M38.9,95.811H58.514v9.559H38.9"/><line class="f" x1="19.587" transform="translate(58.514 105.37)"/><line class="f" x2="7.509" transform="translate(58.514 95.811)"/><rect class="f" width="19.587" height="9.559" transform="translate(48.708 105.37)"/><path class="f" d="M41.965,114.979H58.514v9.559H52.166"/><rect class="f" width="19.587" height="9.559" transform="translate(58.514 114.979)"/><path class="f" d="M143.383,130.416H163v9.534H143.383"/><line class="f" x1="19.587" transform="translate(162.995 139.95)"/><line class="f" x2="7.509" transform="translate(162.995 130.416)"/><rect class="f" width="19.587" height="9.559" transform="translate(153.189 139.95)"/><path class="f" d="M146.446,149.559H163v9.559h-6.348"/><path class="f" d="M175.617,159.117H163v-9.559h16.327"/><rect class="f" width="30.406" height="24.651" transform="translate(79.485 60.021)"/><path class="f" d="M83.684,78.966l5.558-8.077,5.78,7.138"/><path class="f" d="M92.9,75.409l7.781-7.534,5.508,11.09"/><path class="f" d="M90.871,72.89a2.921,2.921,0,0,1,5.286-.568"/><path class="f" d="M188.955,101.319h-43.25a2.878,2.878,0,0,1-2.89-2.89h0a2.878,2.878,0,0,1,2.89-2.89h43.25a2.878,2.878,0,0,1,2.89,2.89h0A2.878,2.878,0,0,1,188.955,101.319Z"/><path class="f" d="M174.086,95.54H161.414L158.8,79.361h17.932Z"/><rect class="f" width="22.798" height="4.693" transform="translate(156.4 74.668)"/><path class="f" d="M170.7,74.668h-4.668c-1.284-4.471-2.4-9.164-2.248-13.758a4.868,4.868,0,0,1,4.594-4.051h0a4.868,4.868,0,0,1,4.594,4.051C173.073,65.5,171.961,70.2,170.7,74.668Z"/><path class="f" d="M173.073,60.367l3.236-5.36a1.942,1.942,0,0,1,2.939-.469h0A1.928,1.928,0,0,1,179.2,57.5l-6.076,4.989"/><path class="f" d="M176.358,54.958l-1.531-4.792a1.226,1.226,0,0,1,1.013-1.605h0a1.267,1.267,0,0,1,1.433,1.26l-.124,3.878"/></g><rect class="g" width="74.373" height="35.89" transform="translate(165.981 93.03) rotate(115.989)"/><rect class="h" width="74.373" height="35.89" transform="translate(165.981 93.03) rotate(115.989)"/><path class="i" d="M153.214,91.365l-10.325-5.039a8.085,8.085,0,0,1-10.819,3.73L106.63,142.223,131.5,154.35l25.441-52.166A8.064,8.064,0,0,1,153.214,91.365Z"/><path class="f" d="M153.214,91.365l-10.325-5.039a8.085,8.085,0,0,1-10.819,3.73L106.63,142.223,131.5,154.35l25.441-52.166A8.064,8.064,0,0,1,153.214,91.365Z"/><rect class="h" width="27.665" height="66.148" transform="translate(135.619 82.79) rotate(25.989)"/><circle class="g" cx="8.472" cy="8.472" r="8.472" transform="translate(127.551 104.901)"/><circle class="f" cx="8.472" cy="8.472" r="8.472" transform="translate(127.551 104.901)"/><rect class="j" width="74.37" height="35.888" transform="translate(190.248 115.934) rotate(140.653)"/><rect class="k" width="74.37" height="35.888" transform="translate(190.248 115.934) rotate(140.653)"/><path class="i" d="M179.322,109.1l-7.286-8.867A8.084,8.084,0,0,1,160.649,99.1l-44.88,36.8,17.537,21.39,44.88-36.8A8.086,8.086,0,0,1,179.322,109.1Z"/><path class="f" d="M179.322,109.1l-7.286-8.867A8.084,8.084,0,0,1,160.649,99.1l-44.88,36.8,17.537,21.39,44.88-36.8A8.086,8.086,0,0,1,179.322,109.1Z"/><rect class="k" width="27.663" height="66.145" transform="translate(166.898 93.977) rotate(50.653)"/><circle class="j" cx="8.472" cy="8.472" r="8.472" transform="translate(146.051 113.472)"/><circle class="f" cx="8.472" cy="8.472" r="8.472" transform="translate(146.051 113.472)"/><path class="l" d="M155.462,113.052a17.3,17.3,0,0,0-4.347-11.461l-41.15,33.74,22.773,27.763,22.749-18.648V113.052Z"/><line class="m" x2="163.514" transform="translate(41.743 184.929)"/><path class="n" d="M138.172,184.929H86.3a14.832,14.832,0,0,1-14.82-14.82V111.817A14.832,14.832,0,0,1,86.3,97h51.87a14.832,14.832,0,0,1,14.82,14.82v58.292A14.8,14.8,0,0,1,138.172,184.929Z"/><path class="n" d="M138.172,184.929H86.3a14.832,14.832,0,0,1-14.82-14.82V111.817A14.832,14.832,0,0,1,86.3,97h51.87a14.832,14.832,0,0,1,14.82,14.82v58.292A14.8,14.8,0,0,1,138.172,184.929Z"/><path class="o" d="M138.172,181.94H86.3a14.832,14.832,0,0,1-14.82-14.82v2.989a14.832,14.832,0,0,0,14.82,14.82h51.87a14.832,14.832,0,0,0,14.82-14.82V167.12A14.816,14.816,0,0,1,138.172,181.94Z"/><path class="p" d="M138.172,97H86.3c-8.176,0-14.82,6.1-14.82,13.61v3.186c0-7.509,6.644-13.61,14.82-13.61h51.87c8.176,0,14.82,6.1,14.82,13.61v-3.186C152.992,103.1,146.372,97,138.172,97Z"/><path class="q" d="M120.882,133.182H107.544a4.459,4.459,0,0,1-4.446-4.446V101.443A4.459,4.459,0,0,1,107.544,97h17.784v31.74A4.443,4.443,0,0,1,120.882,133.182Z"/><path class="f" d="M138.172,184.929H86.3a14.832,14.832,0,0,1-14.82-14.82V111.817A14.832,14.832,0,0,1,86.3,97h51.87a14.832,14.832,0,0,1,14.82,14.82v58.292A14.8,14.8,0,0,1,138.172,184.929Z"/><g class="r"><path class="s" d="M76.916,169.738V112.187A9.382,9.382,0,0,1,86.3,102.8h51.87a9.382,9.382,0,0,1,9.386,9.386v57.526a9.382,9.382,0,0,1-9.386,9.386H86.3A9.345,9.345,0,0,1,76.916,169.738Z"/></g><path class="t" d="M118.906,130.465H105.568a4.459,4.459,0,0,1-4.446-4.446V95.885a4.459,4.459,0,0,1,4.446-4.446h13.338a4.459,4.459,0,0,1,4.446,4.446v30.134A4.443,4.443,0,0,1,118.906,130.465Z"/><path class="u" d="M118.906,128.415H105.568a4.459,4.459,0,0,1-4.446-4.446v2.05a4.459,4.459,0,0,0,4.446,4.446h13.338a4.459,4.459,0,0,0,4.446-4.446v-2.05A4.443,4.443,0,0,1,118.906,128.415Z"/><path class="v" d="M118.906,91.439H105.568a4.459,4.459,0,0,0-4.446,4.446v1.68a4.459,4.459,0,0,1,4.446-4.446h13.338a4.459,4.459,0,0,1,4.446,4.446v-1.68A4.443,4.443,0,0,0,118.906,91.439Z"/><path class="f" d="M118.906,130.465H105.568a4.459,4.459,0,0,1-4.446-4.446V95.885a4.459,4.459,0,0,1,4.446-4.446h13.338a4.459,4.459,0,0,1,4.446,4.446v30.134A4.443,4.443,0,0,1,118.906,130.465Z"/><circle class="q" cx="5.73" cy="5.73" r="5.73" transform="translate(107.247 112.632)"/><g class="r"><path class="w" d="M105.568,127.5a1.486,1.486,0,0,1-1.482-1.482V95.885a1.486,1.486,0,0,1,1.482-1.482h13.338a1.486,1.486,0,0,1,1.482,1.482v30.134a1.486,1.486,0,0,1-1.482,1.482Z"/></g><circle class="d" cx="5.73" cy="5.73" r="5.73" transform="translate(106.506 111.15)"/><circle class="f" cx="5.73" cy="5.73" r="5.73" transform="translate(106.506 111.15)"/><g class="x"><path class="y" d="M114.657,113.941c.2.939-.914,1.531-2.544,1.877-1.655.321-3.137.37-3.335-.42-.2-.766.914-2.223,2.544-2.692C112.978,112.237,114.46,113.027,114.657,113.941Z"/></g><path class="z" d="M194.71,184.929H177.42a1.813,1.813,0,0,1-1.8-1.8v-1.21a1.813,1.813,0,0,1,1.8-1.8h17.29a1.813,1.813,0,0,1,1.8,1.8v1.21A1.8,1.8,0,0,1,194.71,184.929Z"/><path class="aa" d="M194.71,180.631H177.42a1.813,1.813,0,0,0-1.8,1.8v.692a1.813,1.813,0,0,1,1.8-1.8h17.29a1.813,1.813,0,0,1,1.8,1.8v-.692A1.813,1.813,0,0,0,194.71,180.631Z"/><path class="ab" d="M194.71,184.385H177.42a1.813,1.813,0,0,1-1.8-1.8v-.692a1.813,1.813,0,0,0,1.8,1.8h17.29a1.813,1.813,0,0,0,1.8-1.8v.692A1.8,1.8,0,0,1,194.71,184.385Z"/><path class="f" d="M194.71,184.929H177.42a1.813,1.813,0,0,1-1.8-1.8v-1.21a1.813,1.813,0,0,1,1.8-1.8h17.29a1.813,1.813,0,0,1,1.8,1.8v1.21A1.8,1.8,0,0,1,194.71,184.929Z"/><path class="z" d="M197.6,180.137H180.31a1.813,1.813,0,0,1-1.8-1.8v-1.21a1.813,1.813,0,0,1,1.8-1.8H197.6a1.813,1.813,0,0,1,1.8,1.8v1.21A1.813,1.813,0,0,1,197.6,180.137Z"/><path class="aa" d="M197.6,175.839H180.31a1.813,1.813,0,0,0-1.8,1.8v.692a1.813,1.813,0,0,1,1.8-1.8H197.6a1.813,1.813,0,0,1,1.8,1.8v-.692A1.83,1.83,0,0,0,197.6,175.839Z"/><path class="ab" d="M197.6,179.594H180.31a1.813,1.813,0,0,1-1.8-1.8V177.1a1.813,1.813,0,0,0,1.8,1.8H197.6a1.813,1.813,0,0,0,1.8-1.8v.692A1.813,1.813,0,0,1,197.6,179.594Z"/><path class="f" d="M197.6,180.137H180.31a1.813,1.813,0,0,1-1.8-1.8v-1.21a1.813,1.813,0,0,1,1.8-1.8H197.6a1.813,1.813,0,0,1,1.8,1.8v1.21A1.813,1.813,0,0,1,197.6,180.137Z"/><path class="z" d="M194.71,175.345H177.42a1.813,1.813,0,0,1-1.8-1.8v-1.21a1.813,1.813,0,0,1,1.8-1.8h17.29a1.813,1.813,0,0,1,1.8,1.8v1.21A1.8,1.8,0,0,1,194.71,175.345Z"/><path class="aa" d="M194.71,171.072H177.42a1.813,1.813,0,0,0-1.8,1.8v.692a1.813,1.813,0,0,1,1.8-1.8h17.29a1.813,1.813,0,0,1,1.8,1.8v-.692A1.8,1.8,0,0,0,194.71,171.072Z"/><path class="ab" d="M194.71,174.827H177.42a1.813,1.813,0,0,1-1.8-1.8v-.692a1.813,1.813,0,0,0,1.8,1.8h17.29a1.813,1.813,0,0,0,1.8-1.8v.692A1.813,1.813,0,0,1,194.71,174.827Z"/><path class="f" d="M194.71,175.345H177.42a1.813,1.813,0,0,1-1.8-1.8v-1.21a1.813,1.813,0,0,1,1.8-1.8h17.29a1.813,1.813,0,0,1,1.8,1.8v1.21A1.8,1.8,0,0,1,194.71,175.345Z"/><path class="z" d="M175.148,171.739l-11.807,12.622a1.8,1.8,0,0,1-2.544.074l-.865-.815a1.8,1.8,0,0,1-.074-2.544l11.807-12.622a1.8,1.8,0,0,1,2.544-.074l.865.815A1.843,1.843,0,0,1,175.148,171.739Z"/><path class="aa" d="M172.011,168.8,160.2,181.421a1.82,1.82,0,0,0,.074,2.544l.519.469a1.8,1.8,0,0,1-.074-2.544l11.807-12.622a1.8,1.8,0,0,1,2.544-.074l-.519-.469A1.8,1.8,0,0,0,172.011,168.8Z"/><path class="ab" d="M174.753,171.369,162.946,183.99a1.8,1.8,0,0,1-2.544.074l-.519-.469a1.82,1.82,0,0,0,2.544-.074L174.234,170.9a1.82,1.82,0,0,0-.074-2.544l.519.469A1.844,1.844,0,0,1,174.753,171.369Z"/><path class="f" d="M175.148,171.739l-11.807,12.622a1.8,1.8,0,0,1-2.544.074l-.865-.815a1.8,1.8,0,0,1-.074-2.544l11.807-12.622a1.8,1.8,0,0,1,2.544-.074l.865.815A1.843,1.843,0,0,1,175.148,171.739Z"/></g></g></svg>